<svg xmlns="http://www.w3.org/2000/svg" width="379.992" height="402.527" viewBox="0 0 379.992 402.527"><path fill="#B2B2B2" d="M189.396 0L0 66.648l29.927 248.125 159.66 87.754 160.486-88.938 29.92-248.12L189.395 0z"/><path fill="#B52E31" d="M361.108 79.81L188.953 21.103V381.57l144.277-79.847L361.108 79.81z"/><path fill="#E23237" d="M21.26 80.868l25.646 221.917 142.046 78.777V21.094L21.26 80.868z"/><path fill="#F2F2F2" d="M228.86 200.394l-39.593-82.678-34.854 82.677h74.447zm15.093 34.762h-104.94l-23.48 58.73-43.67.806 117.09-260.5 121.18 260.494h-40.476l-25.704-59.53z"/><path fill="#B2B2B2" d="M188.953 34.193l.313 83.523 39.55 82.74h-39.773l-.09 34.648 54.997.053 25.707 59.54 41.788.775-122.492-261.28z"/></svg>