<svg xmlns="http://www.w3.org/2000/svg" width="379.992" height="402.527" viewBox="0 0 379.992 402.527"><path fill="#B2B2B2" d="M189.396 0L0 66.648l29.927 248.125 159.66 87.754 160.486-88.938L379.992 65.47 189.396 0z"/><path fill="#B52E31" d="M361.108 79.811L188.953 21.102v360.467l144.277-79.846 27.878-221.912z"/><path fill="#E23237" d="M21.259 80.868l25.647 221.917 142.046 78.777V21.094L21.259 80.868z"/><path fill="#F2F2F2" d="M228.86 200.394l-39.593-82.678-34.854 82.677 74.447.001zm15.093 34.762H139.012l-23.479 58.729-43.67.807 117.091-260.5 121.179 260.494h-40.476l-25.704-59.53z"/><path fill="#B2B2B2" d="M188.953 34.193l.313 83.523 39.549 82.741h-39.772l-.09 34.647 54.997.053 25.707 59.539 41.788.776L188.953 34.193z"/></svg>