<svg width="298" height="420" viewBox="0 0 298 420" xmlns="http://www.w3.org/2000/svg"><title>Slice 1</title><g fill="none" fill-rule="evenodd"><path d="M233.164 15.68h-24.688l25.674 27.86V56.8h-52.882V41.276h25.67l-25.67-27.86V.135h51.896V15.68zm-62.378 0h-24.688l25.673 27.86V56.8h-52.88V41.276h25.67l-25.67-27.86V.135h51.896V15.68zm-61.768.632h-26.64v24.313h26.64V56.8H63.444V.136h45.574v16.177zm0 0" fill="#131313"/><path d="M27.142 386.29L.072 82.67h297.45l-27.097 303.57-121.81 33.77L27.14 386.29zm0 0" fill="#1572B6"/><path d="M148.798 394.2l98.427-27.29 23.157-259.414H148.798V394.2zm0 0" fill="#33A9DC"/><path d="M148.797 217.496h49.275l3.403-38.132h-52.678v-37.24h93.375l-.893 9.992-9.153 102.616h-83.33v-37.236zm0 0" fill="#FFF"/><path d="M149.02 314.204l-.163.046-41.472-11.2-2.652-29.697H67.353l5.217 58.467 76.278 21.176.172-.048v-38.744zm0 0" fill="#EBEBEB"/><path d="M194.907 253.156l-4.484 49.87-41.532 11.21v38.742l76.34-21.158.56-6.29 6.478-72.374h-37.36zm0 0" fill="#FFF"/><path d="M148.926 142.125v37.238H58.978l-.746-8.37-1.697-18.877-.89-9.99h93.28zm0 0M148.797 217.5v37.238H107.85l-.746-8.37-1.698-18.877-.89-9.99h44.28zm0 0" fill="#EBEBEB"/></g></svg>