<svg width="298" height="420" viewBox="0 0 298 420" xmlns="http://www.w3.org/2000/svg"><title>Slice 1</title><g fill="none" fill-rule="evenodd"><path d="M233.164 15.681h-24.688L234.15 43.54v13.261h-52.882V41.275h25.669l-25.669-27.86V.135h51.896v15.546zm-62.378 0h-24.688l25.673 27.859v13.261h-52.882V41.275h25.672l-25.672-27.86V.135h51.897v15.546zm-61.768.631h-26.64v24.313h26.64v16.176H63.444V.135h45.574v16.177zm0 0" fill="#131313"/><path d="M27.142 386.29L.071 82.67h297.45l-27.096 303.571-121.811 33.77L27.142 386.29zm0 0" fill="#1572B6"/><path d="M148.798 394.199l98.427-27.288 23.157-259.415H148.798v286.703zm0 0" fill="#33A9DC"/><path d="M148.797 217.496h49.275l3.403-38.132h-52.678v-37.239h93.375l-.893 9.991-9.152 102.616h-83.33v-37.236zm0 0" fill="#FFF"/><path d="M149.02 314.204l-.163.046-41.472-11.199-2.652-29.698H67.354l5.216 58.467 76.278 21.176.172-.048v-38.744zm0 0" fill="#EBEBEB"/><path d="M194.907 253.156l-4.484 49.87-41.532 11.21v38.742l76.339-21.158.56-6.29 6.478-72.374h-37.361zm0 0" fill="#FFF"/><path d="M148.926 142.125v37.239H58.979l-.747-8.37-1.697-18.878-.89-9.991h93.281zm0 0M148.797 217.5v37.238H107.85l-.746-8.369-1.698-18.878-.89-9.991h44.281zm0 0" fill="#EBEBEB"/></g></svg>