<?xml version="1.0" encoding="utf-8"?>
<!-- Generator: Adobe Illustrator 16.0.4, SVG Export Plug-In . SVG Version: 6.00 Build 0)  -->
<!DOCTYPE svg PUBLIC "-//W3C//DTD SVG 1.1//EN" "http://www.w3.org/Graphics/SVG/1.1/DTD/svg11.dtd">
<svg version="1.1" id="Layer_1" xmlns="http://www.w3.org/2000/svg" xmlns:xlink="http://www.w3.org/1999/xlink" x="0px" y="0px"
	 width="379.992px" height="402.527px" viewBox="0 0 379.992 402.527" enable-background="new 0 0 379.992 402.527"
	 xml:space="preserve">
<g id="AngularJS_Logo">
	<g>
		<g>
			<g>
				<path fill="#B2B2B2" d="M189.396,0L0,66.648l29.927,248.125l159.66,87.754l160.486-88.938l29.919-248.119L189.396,0z"/>
				<path fill="#B52E31" d="M361.108,79.811L188.953,21.102v360.467l144.277-79.846L361.108,79.811z"/>
				<path fill="#E23237" d="M21.259,80.868l25.647,221.917l142.046,78.777V21.094L21.259,80.868z"/>
				<path fill="#F2F2F2" d="M228.86,200.394l-39.593-82.678l-34.854,82.677L228.86,200.394L228.86,200.394z M243.953,235.156
					H139.012l-23.479,58.729l-43.67,0.807l117.091-260.5l121.179,260.494h-40.476L243.953,235.156z"/>
				<path fill="#B2B2B2" d="M188.953,34.193l0.313,83.523l39.549,82.741h-39.772l-0.09,34.647l54.997,0.053l25.707,59.539
					l41.788,0.776L188.953,34.193z"/>
			</g>
		</g>
	</g>
</g>
</svg>
